<svg xmlns="http://www.w3.org/2000/svg" width="500" height="200" viewBox="0 0 500 200"><path d="M485.218 185.215H306.062V6.06h179.156zm0 0" fill="#5c2b8f"/><path d="M485.218 6.06v179.155H306.062l14.782 14.784H500V20.844zm0 0" fill="#f57f1e"/><path d="M343.098 103.573h20.65v-25.42zm39.986 0h11.696V121.6h-11.696v15.634h-19.336V121.6h-42.015v-19.815l39.03-48.82h2.985v-.12h19.336zm0 0M469.546 52.966v52.16c0 6.05-1.492 11.62-4.475 16.712-2.985 5.092-7.042 9.131-12.176 12.114-5.131 2.985-10.723 4.475-16.769 4.475h-1.908c-6.049 0-11.622-1.49-16.711-4.475-5.093-2.983-9.131-7.022-12.117-12.114-2.982-5.092-4.475-10.662-4.475-16.711V52.966h19.932v47.387c0 4.936 1.195 9.032 3.581 12.294 2.387 3.263 5.65 4.894 9.79 4.894h1.908c3.978 0 7.22-1.652 9.726-4.954 2.508-3.301 3.762-7.38 3.762-12.234V52.966zm0 0M57.41 73.617V91.88H0V7.49h56.338v18.265H21.602v14.798h29.244v18.264H21.602v14.799zm0 0M97.713 57.384h15.038l-7.52-23.632zm19.216-49.056l27.573 83.553h-20.769l-5.492-17.07H92.103l-5.371 17.07h-20.89L93.537 8.328zm0 0M188.488 34.228v-1.55c0-2.308-.975-4.276-2.926-5.907-1.95-1.631-4.316-2.45-7.102-2.45-2.863 0-5.31.819-7.34 2.45-2.029 1.631-3.043 3.6-3.043 5.908 0 2.308 1.032 4.02 3.103 5.13 1.989 1.355 4.695 2.468 8.116 3.344a20.73 20.73 0 0 1 1.85.358c.675.16 1.373.32 2.09.479 8.513 2.07 14.201 4.415 17.066 7.042l1.075.954c2.39 2.309 4.276 5.053 5.67 8.234 1.39 3.184 2.088 6.368 2.088 9.55 0 3.58-.776 7.002-2.327 10.265-1.55 3.265-3.8 6.167-6.744 8.712-2.946 2.468-6.287 4.358-10.027 5.67-3.74 1.312-7.639 1.971-11.695 1.971-4.06 0-7.94-.658-11.638-1.97-3.701-1.313-7.024-3.203-9.967-5.67-2.946-2.547-5.212-5.449-6.805-8.713-1.592-3.263-2.386-6.684-2.386-10.266v-1.552h20.889v1.552c0 2.309.975 4.28 2.922 5.908 1.95 1.634 4.277 2.45 6.985 2.45 2.865 0 5.312-.816 7.34-2.45 2.029-1.628 3.043-3.6 3.043-5.908 0-1.83-1.074-3.58-3.223-5.251-.954-.717-2.067-1.313-3.34-1.791-1.273-.479-2.826-.954-4.656-1.433l-3.939-.954c-4.376-1.113-7.797-2.109-10.263-2.985-2.467-.876-4.736-2.227-6.804-4.057l-.478-.478c-2.706-2.465-4.795-5.252-6.266-8.355a22.567 22.567 0 0 1-2.21-9.786c0-3.581.795-7 2.387-10.266 1.593-3.262 3.859-6.167 6.805-8.715 2.943-2.465 6.266-4.355 9.967-5.667 3.699-1.312 7.578-1.971 11.638-1.971 4.057 0 7.954.658 11.695 1.97 3.74 1.313 7.082 3.203 10.027 5.668 2.944 2.549 5.194 5.453 6.745 8.715 1.55 3.265 2.326 6.684 2.326 10.266v1.55zm0 0M263.487 7.492h21.485l-24.826 50.012V91.88h-21.484V57.504L213.833 7.492h21.485l14.085 28.764zm0 0" fill="#f57f1e"/><path d="M58.725 132.918H21.483v14.8h29.841v18.262H21.483v33.063H0v-84.387h58.725zm0 0M110.007 176.367a22.664 22.664 0 0 0 7.998-7.997c1.987-3.343 2.983-7.003 2.983-10.984 0-3.976-.996-7.657-2.983-11.04-1.992-3.382-4.655-6.066-7.998-8.056-3.34-1.987-7.003-2.982-10.98-2.982-3.98 0-7.661.995-11.041 2.982-3.382 1.99-6.07 4.674-8.057 8.057-1.989 3.382-2.985 7.063-2.985 11.039 0 3.981.996 7.64 2.985 10.984 1.987 3.34 4.674 6.007 8.057 7.997 3.38 1.99 7.06 2.982 11.042 2.982 3.976 0 7.638-.993 10.979-2.982m10.385-55.98c6.522 3.819 11.695 9.013 15.517 15.577 3.819 6.564 5.727 13.706 5.727 21.422 0 7.722-1.908 14.845-5.727 21.367-3.822 6.525-8.995 11.698-15.517 15.517-6.527 3.82-13.648 5.73-21.364 5.73-7.722 0-14.861-1.91-21.425-5.73-6.566-3.82-11.758-8.992-15.577-15.517-3.82-6.522-5.73-13.645-5.73-21.367 0-7.717 1.91-14.858 5.73-21.422 3.82-6.564 9.01-11.758 15.577-15.578 6.564-3.819 13.703-5.73 21.425-5.73 7.717 0 14.838 1.911 21.365 5.73M203.04 114.657v21.485h-21.605v62.904h-21.602v-62.904h-21.605v-21.485zm0 0M253.34 176.367a22.643 22.643 0 0 0 7.998-7.997c1.99-3.343 2.985-7.003 2.985-10.984 0-3.976-.995-7.657-2.985-11.04-1.99-3.382-4.655-6.066-7.999-8.056-3.34-1.987-7-2.982-10.979-2.982-3.981 0-7.662.995-11.041 2.982-3.383 1.99-6.07 4.674-8.057 8.057-1.99 3.382-2.985 7.063-2.985 11.039 0 3.981.996 7.64 2.985 10.984 1.987 3.34 4.674 6.007 8.057 7.997 3.38 1.99 7.06 2.982 11.041 2.982 3.98 0 7.639-.993 10.98-2.982m10.385-55.98c6.525 3.82 11.698 9.014 15.516 15.578 3.82 6.564 5.73 13.705 5.73 21.422 0 7.722-1.91 14.845-5.73 21.367-3.819 6.525-8.992 11.698-15.516 15.517-6.525 3.819-13.648 5.73-21.365 5.73-7.719 0-14.86-1.911-21.425-5.73-6.566-3.82-11.758-8.993-15.577-15.517-3.819-6.522-5.73-13.645-5.73-21.367 0-7.717 1.911-14.858 5.73-21.422 3.82-6.564 9.01-11.758 15.577-15.578 6.564-3.819 13.706-5.73 21.425-5.73 7.717 0 14.84 1.911 21.365 5.73" fill="#5c2b8f"/><path d="M262.965 151.844a9.74 9.74 0 0 1-9.743 9.743c-5.38 0-9.74-4.36-9.74-9.743 0-5.38 4.36-9.742 9.74-9.742 5.383 0 9.743 4.363 9.743 9.742M119.624 151.844c0 5.383-4.36 9.743-9.74 9.743a9.74 9.74 0 0 1-9.742-9.743c0-5.38 4.36-9.742 9.742-9.742 5.38 0 9.74 4.363 9.74 9.742" fill="#f57f1e"/></svg>